<mxfile host="app.diagrams.net" modified="2023-07-07T22:41:57.780Z" agent="Mozilla/5.0 (Windows NT 10.0; Win64; x64) AppleWebKit/537.36 (KHTML, like Gecko) Chrome/114.0.0.0 Safari/537.36" etag="kKAx_kqKMzUjgkXc74gC" version="21.6.1" type="github">
  <diagram name="Page-1" id="2YBvvXClWsGukQMizWep">
    <mxGraphModel dx="1290" dy="573" grid="1" gridSize="10" guides="1" tooltips="1" connect="1" arrows="1" fold="1" page="1" pageScale="1" pageWidth="850" pageHeight="1100" math="0" shadow="0">
      <root>
        <mxCell id="0" />
        <mxCell id="1" parent="0" />
        <mxCell id="aM9ryv3xv72pqoxQDRHE-1" value="Client" style="shape=umlLifeline;perimeter=lifelinePerimeter;whiteSpace=wrap;html=1;container=0;dropTarget=0;collapsible=0;recursiveResize=0;outlineConnect=0;portConstraint=eastwest;newEdgeStyle={&quot;edgeStyle&quot;:&quot;elbowEdgeStyle&quot;,&quot;elbow&quot;:&quot;vertical&quot;,&quot;curved&quot;:0,&quot;rounded&quot;:0};" parent="1" vertex="1">
          <mxGeometry x="80" y="40" width="100" height="500" as="geometry" />
        </mxCell>
        <mxCell id="aM9ryv3xv72pqoxQDRHE-2" value="" style="html=1;points=[];perimeter=orthogonalPerimeter;outlineConnect=0;targetShapes=umlLifeline;portConstraint=eastwest;newEdgeStyle={&quot;edgeStyle&quot;:&quot;elbowEdgeStyle&quot;,&quot;elbow&quot;:&quot;vertical&quot;,&quot;curved&quot;:0,&quot;rounded&quot;:0};" parent="aM9ryv3xv72pqoxQDRHE-1" vertex="1">
          <mxGeometry x="45" y="70" width="10" height="400" as="geometry" />
        </mxCell>
        <mxCell id="aM9ryv3xv72pqoxQDRHE-3" value="file_ops" style="html=1;verticalAlign=bottom;startArrow=oval;endArrow=block;startSize=8;edgeStyle=elbowEdgeStyle;elbow=vertical;curved=0;rounded=0;" parent="aM9ryv3xv72pqoxQDRHE-1" target="aM9ryv3xv72pqoxQDRHE-2" edge="1">
          <mxGeometry relative="1" as="geometry">
            <mxPoint x="-40" y="70" as="sourcePoint" />
          </mxGeometry>
        </mxCell>
        <mxCell id="aM9ryv3xv72pqoxQDRHE-5" value="NameNode" style="shape=umlLifeline;perimeter=lifelinePerimeter;whiteSpace=wrap;html=1;container=0;dropTarget=0;collapsible=0;recursiveResize=0;outlineConnect=0;portConstraint=eastwest;newEdgeStyle={&quot;edgeStyle&quot;:&quot;elbowEdgeStyle&quot;,&quot;elbow&quot;:&quot;vertical&quot;,&quot;curved&quot;:0,&quot;rounded&quot;:0};" parent="1" vertex="1">
          <mxGeometry x="220" y="40" width="100" height="500" as="geometry" />
        </mxCell>
        <mxCell id="aM9ryv3xv72pqoxQDRHE-6" value="" style="html=1;points=[];perimeter=orthogonalPerimeter;outlineConnect=0;targetShapes=umlLifeline;portConstraint=eastwest;newEdgeStyle={&quot;edgeStyle&quot;:&quot;elbowEdgeStyle&quot;,&quot;elbow&quot;:&quot;vertical&quot;,&quot;curved&quot;:0,&quot;rounded&quot;:0};" parent="aM9ryv3xv72pqoxQDRHE-5" vertex="1">
          <mxGeometry x="45" y="70" width="10" height="400" as="geometry" />
        </mxCell>
        <mxCell id="w1y7XNrj_47FTtm7eLer-3" value="" style="html=1;points=[];perimeter=orthogonalPerimeter;outlineConnect=0;targetShapes=umlLifeline;portConstraint=eastwest;newEdgeStyle={&quot;edgeStyle&quot;:&quot;elbowEdgeStyle&quot;,&quot;elbow&quot;:&quot;vertical&quot;,&quot;curved&quot;:0,&quot;rounded&quot;:0};" parent="aM9ryv3xv72pqoxQDRHE-5" vertex="1">
          <mxGeometry x="50" y="150" width="10" height="40" as="geometry" />
        </mxCell>
        <mxCell id="w1y7XNrj_47FTtm7eLer-4" value="metadata_ops" style="html=1;align=left;spacingLeft=2;endArrow=block;rounded=0;edgeStyle=orthogonalEdgeStyle;curved=0;rounded=0;" parent="aM9ryv3xv72pqoxQDRHE-5" target="w1y7XNrj_47FTtm7eLer-3" edge="1">
          <mxGeometry relative="1" as="geometry">
            <mxPoint x="55" y="130" as="sourcePoint" />
            <Array as="points">
              <mxPoint x="85" y="160" />
            </Array>
          </mxGeometry>
        </mxCell>
        <mxCell id="aM9ryv3xv72pqoxQDRHE-7" value="file_system_call" style="html=1;verticalAlign=bottom;endArrow=block;edgeStyle=elbowEdgeStyle;elbow=vertical;curved=0;rounded=0;" parent="1" source="aM9ryv3xv72pqoxQDRHE-2" target="aM9ryv3xv72pqoxQDRHE-6" edge="1">
          <mxGeometry relative="1" as="geometry">
            <mxPoint x="195" y="130" as="sourcePoint" />
            <Array as="points">
              <mxPoint x="210" y="140" />
              <mxPoint x="190" y="170" />
              <mxPoint x="180" y="120" />
            </Array>
          </mxGeometry>
        </mxCell>
        <mxCell id="aM9ryv3xv72pqoxQDRHE-8" value="return data streaming" style="html=1;verticalAlign=bottom;endArrow=open;dashed=1;endSize=8;edgeStyle=elbowEdgeStyle;elbow=vertical;curved=0;rounded=0;" parent="1" source="w1y7XNrj_47FTtm7eLer-2" target="aM9ryv3xv72pqoxQDRHE-2" edge="1">
          <mxGeometry relative="1" as="geometry">
            <mxPoint x="195" y="205" as="targetPoint" />
            <Array as="points">
              <mxPoint x="230" y="300" />
              <mxPoint x="190" y="280" />
            </Array>
          </mxGeometry>
        </mxCell>
        <mxCell id="w1y7XNrj_47FTtm7eLer-1" value="DataNode" style="shape=umlLifeline;perimeter=lifelinePerimeter;whiteSpace=wrap;html=1;container=0;dropTarget=0;collapsible=0;recursiveResize=0;outlineConnect=0;portConstraint=eastwest;newEdgeStyle={&quot;edgeStyle&quot;:&quot;elbowEdgeStyle&quot;,&quot;elbow&quot;:&quot;vertical&quot;,&quot;curved&quot;:0,&quot;rounded&quot;:0};" parent="1" vertex="1">
          <mxGeometry x="360" y="40" width="100" height="500" as="geometry" />
        </mxCell>
        <mxCell id="w1y7XNrj_47FTtm7eLer-2" value="" style="html=1;points=[];perimeter=orthogonalPerimeter;outlineConnect=0;targetShapes=umlLifeline;portConstraint=eastwest;newEdgeStyle={&quot;edgeStyle&quot;:&quot;elbowEdgeStyle&quot;,&quot;elbow&quot;:&quot;vertical&quot;,&quot;curved&quot;:0,&quot;rounded&quot;:0};" parent="w1y7XNrj_47FTtm7eLer-1" vertex="1">
          <mxGeometry x="45" y="70" width="10" height="400" as="geometry" />
        </mxCell>
        <mxCell id="w1y7XNrj_47FTtm7eLer-7" value="" style="html=1;points=[];perimeter=orthogonalPerimeter;outlineConnect=0;targetShapes=umlLifeline;portConstraint=eastwest;newEdgeStyle={&quot;edgeStyle&quot;:&quot;elbowEdgeStyle&quot;,&quot;elbow&quot;:&quot;vertical&quot;,&quot;curved&quot;:0,&quot;rounded&quot;:0};" parent="w1y7XNrj_47FTtm7eLer-1" vertex="1">
          <mxGeometry x="50" y="350" width="10" height="40" as="geometry" />
        </mxCell>
        <mxCell id="w1y7XNrj_47FTtm7eLer-8" value="data_replication" style="html=1;align=left;spacingLeft=2;endArrow=block;rounded=0;edgeStyle=orthogonalEdgeStyle;curved=0;rounded=0;" parent="w1y7XNrj_47FTtm7eLer-1" target="w1y7XNrj_47FTtm7eLer-7" edge="1">
          <mxGeometry relative="1" as="geometry">
            <mxPoint x="55" y="330" as="sourcePoint" />
            <Array as="points">
              <mxPoint x="85" y="360" />
            </Array>
          </mxGeometry>
        </mxCell>
        <mxCell id="w1y7XNrj_47FTtm7eLer-5" value="block_ops" style="html=1;verticalAlign=bottom;endArrow=block;edgeStyle=elbowEdgeStyle;elbow=vertical;curved=0;rounded=0;" parent="1" source="aM9ryv3xv72pqoxQDRHE-6" target="w1y7XNrj_47FTtm7eLer-2" edge="1">
          <mxGeometry relative="1" as="geometry">
            <mxPoint x="280" y="260" as="sourcePoint" />
            <Array as="points">
              <mxPoint x="380" y="260" />
              <mxPoint x="355" y="260" />
              <mxPoint x="335" y="290" />
              <mxPoint x="325" y="240" />
            </Array>
            <mxPoint x="400" y="260" as="targetPoint" />
          </mxGeometry>
        </mxCell>
        <mxCell id="w1y7XNrj_47FTtm7eLer-6" value="data_write" style="html=1;verticalAlign=bottom;endArrow=block;edgeStyle=elbowEdgeStyle;elbow=vertical;curved=0;rounded=0;" parent="1" source="aM9ryv3xv72pqoxQDRHE-2" target="w1y7XNrj_47FTtm7eLer-2" edge="1">
          <mxGeometry width="80" relative="1" as="geometry">
            <mxPoint x="160" y="350" as="sourcePoint" />
            <mxPoint x="340" y="350" as="targetPoint" />
            <Array as="points">
              <mxPoint x="310" y="340" />
              <mxPoint x="330" y="330" />
              <mxPoint x="370" y="350" />
            </Array>
          </mxGeometry>
        </mxCell>
        <mxCell id="w1y7XNrj_47FTtm7eLer-9" value="return" style="html=1;verticalAlign=bottom;endArrow=open;dashed=1;endSize=8;edgeStyle=elbowEdgeStyle;elbow=vertical;curved=0;rounded=0;" parent="1" edge="1">
          <mxGeometry relative="1" as="geometry">
            <mxPoint x="135" y="440" as="targetPoint" />
            <Array as="points">
              <mxPoint x="230" y="440" />
              <mxPoint x="190" y="420" />
            </Array>
            <mxPoint x="405" y="440" as="sourcePoint" />
          </mxGeometry>
        </mxCell>
        <mxCell id="v54Mh32h3l0idFHRtPxM-1" value="NameNode" style="swimlane;whiteSpace=wrap;html=1;" parent="1" vertex="1">
          <mxGeometry x="80" y="600" width="240" height="400" as="geometry" />
        </mxCell>
        <mxCell id="v54Mh32h3l0idFHRtPxM-3" value="journal" style="shape=note;whiteSpace=wrap;html=1;backgroundOutline=1;darkOpacity=0.05;size=14;" parent="v54Mh32h3l0idFHRtPxM-1" vertex="1">
          <mxGeometry x="20" y="40" width="90" height="40" as="geometry" />
        </mxCell>
        <mxCell id="v54Mh32h3l0idFHRtPxM-4" value="image" style="shape=note;whiteSpace=wrap;html=1;backgroundOutline=1;darkOpacity=0.05;size=14;" parent="v54Mh32h3l0idFHRtPxM-1" vertex="1">
          <mxGeometry x="130" y="40" width="90" height="40" as="geometry" />
        </mxCell>
        <mxCell id="v54Mh32h3l0idFHRtPxM-5" value="journal" style="shape=note;whiteSpace=wrap;html=1;backgroundOutline=1;darkOpacity=0.05;size=14;" parent="v54Mh32h3l0idFHRtPxM-1" vertex="1">
          <mxGeometry x="20" y="100" width="90" height="40" as="geometry" />
        </mxCell>
        <mxCell id="v54Mh32h3l0idFHRtPxM-10" value="checkpoint" style="shape=note;whiteSpace=wrap;html=1;backgroundOutline=1;darkOpacity=0.05;size=14;" parent="v54Mh32h3l0idFHRtPxM-1" vertex="1">
          <mxGeometry x="130" y="280" width="90" height="40" as="geometry" />
        </mxCell>
        <mxCell id="v54Mh32h3l0idFHRtPxM-11" value="image" style="shape=note;whiteSpace=wrap;html=1;backgroundOutline=1;darkOpacity=0.05;size=14;" parent="v54Mh32h3l0idFHRtPxM-1" vertex="1">
          <mxGeometry x="130" y="340" width="90" height="40" as="geometry" />
        </mxCell>
        <mxCell id="v54Mh32h3l0idFHRtPxM-12" value="journal" style="shape=note;whiteSpace=wrap;html=1;backgroundOutline=1;darkOpacity=0.05;size=14;" parent="v54Mh32h3l0idFHRtPxM-1" vertex="1">
          <mxGeometry x="20" y="340" width="90" height="40" as="geometry" />
        </mxCell>
        <mxCell id="v54Mh32h3l0idFHRtPxM-13" value="" style="endArrow=classic;html=1;rounded=0;exitX=0.5;exitY=1;exitDx=0;exitDy=0;exitPerimeter=0;entryX=0.5;entryY=0;entryDx=0;entryDy=0;entryPerimeter=0;" parent="v54Mh32h3l0idFHRtPxM-1" source="v54Mh32h3l0idFHRtPxM-3" target="v54Mh32h3l0idFHRtPxM-5" edge="1">
          <mxGeometry width="50" height="50" relative="1" as="geometry">
            <mxPoint x="320" y="320" as="sourcePoint" />
            <mxPoint x="370" y="270" as="targetPoint" />
          </mxGeometry>
        </mxCell>
        <mxCell id="v54Mh32h3l0idFHRtPxM-20" value="" style="endArrow=classic;html=1;rounded=0;exitX=0.5;exitY=1;exitDx=0;exitDy=0;exitPerimeter=0;" parent="v54Mh32h3l0idFHRtPxM-1" source="v54Mh32h3l0idFHRtPxM-10" target="v54Mh32h3l0idFHRtPxM-11" edge="1">
          <mxGeometry width="50" height="50" relative="1" as="geometry">
            <mxPoint x="75" y="90" as="sourcePoint" />
            <mxPoint x="75" y="110" as="targetPoint" />
          </mxGeometry>
        </mxCell>
        <mxCell id="v54Mh32h3l0idFHRtPxM-21" value="" style="endArrow=classic;html=1;rounded=0;exitX=0.5;exitY=1;exitDx=0;exitDy=0;exitPerimeter=0;" parent="v54Mh32h3l0idFHRtPxM-1" source="v54Mh32h3l0idFHRtPxM-5" target="v54Mh32h3l0idFHRtPxM-12" edge="1">
          <mxGeometry width="50" height="50" relative="1" as="geometry">
            <mxPoint x="85" y="100" as="sourcePoint" />
            <mxPoint x="85" y="120" as="targetPoint" />
          </mxGeometry>
        </mxCell>
        <mxCell id="v54Mh32h3l0idFHRtPxM-2" value="BackupNameNode" style="swimlane;whiteSpace=wrap;html=1;" parent="1" vertex="1">
          <mxGeometry x="360" y="600" width="240" height="400" as="geometry" />
        </mxCell>
        <mxCell id="v54Mh32h3l0idFHRtPxM-6" value="journal" style="shape=note;whiteSpace=wrap;html=1;backgroundOutline=1;darkOpacity=0.05;size=14;" parent="v54Mh32h3l0idFHRtPxM-2" vertex="1">
          <mxGeometry x="20" y="160" width="90" height="40" as="geometry" />
        </mxCell>
        <mxCell id="v54Mh32h3l0idFHRtPxM-7" value="image" style="shape=note;whiteSpace=wrap;html=1;backgroundOutline=1;darkOpacity=0.05;size=14;" parent="v54Mh32h3l0idFHRtPxM-2" vertex="1">
          <mxGeometry x="130" y="160" width="90" height="40" as="geometry" />
        </mxCell>
        <mxCell id="v54Mh32h3l0idFHRtPxM-8" value="checkpoint" style="shape=note;whiteSpace=wrap;html=1;backgroundOutline=1;darkOpacity=0.05;size=14;" parent="v54Mh32h3l0idFHRtPxM-2" vertex="1">
          <mxGeometry x="75" y="220" width="90" height="40" as="geometry" />
        </mxCell>
        <mxCell id="v54Mh32h3l0idFHRtPxM-16" value="" style="endArrow=classic;html=1;rounded=0;exitX=0.5;exitY=1;exitDx=0;exitDy=0;exitPerimeter=0;entryX=0.5;entryY=0;entryDx=0;entryDy=0;entryPerimeter=0;" parent="v54Mh32h3l0idFHRtPxM-2" source="v54Mh32h3l0idFHRtPxM-6" target="v54Mh32h3l0idFHRtPxM-8" edge="1">
          <mxGeometry width="50" height="50" relative="1" as="geometry">
            <mxPoint x="-205" y="90" as="sourcePoint" />
            <mxPoint x="75" y="170" as="targetPoint" />
          </mxGeometry>
        </mxCell>
        <mxCell id="v54Mh32h3l0idFHRtPxM-17" value="" style="endArrow=classic;html=1;rounded=0;exitX=0.5;exitY=1;exitDx=0;exitDy=0;exitPerimeter=0;entryX=0.5;entryY=0;entryDx=0;entryDy=0;entryPerimeter=0;" parent="v54Mh32h3l0idFHRtPxM-2" source="v54Mh32h3l0idFHRtPxM-7" target="v54Mh32h3l0idFHRtPxM-8" edge="1">
          <mxGeometry width="50" height="50" relative="1" as="geometry">
            <mxPoint x="75" y="210" as="sourcePoint" />
            <mxPoint x="130" y="230" as="targetPoint" />
          </mxGeometry>
        </mxCell>
        <mxCell id="v54Mh32h3l0idFHRtPxM-14" value="" style="endArrow=classic;html=1;rounded=0;exitX=0.5;exitY=1;exitDx=0;exitDy=0;exitPerimeter=0;entryX=0.5;entryY=0;entryDx=0;entryDy=0;entryPerimeter=0;" parent="1" source="v54Mh32h3l0idFHRtPxM-3" target="v54Mh32h3l0idFHRtPxM-6" edge="1">
          <mxGeometry width="50" height="50" relative="1" as="geometry">
            <mxPoint x="400" y="920" as="sourcePoint" />
            <mxPoint x="450" y="870" as="targetPoint" />
          </mxGeometry>
        </mxCell>
        <mxCell id="v54Mh32h3l0idFHRtPxM-15" value="" style="endArrow=classic;html=1;rounded=0;exitX=0.5;exitY=1;exitDx=0;exitDy=0;exitPerimeter=0;entryX=0.5;entryY=0;entryDx=0;entryDy=0;entryPerimeter=0;" parent="1" source="v54Mh32h3l0idFHRtPxM-4" target="v54Mh32h3l0idFHRtPxM-7" edge="1">
          <mxGeometry width="50" height="50" relative="1" as="geometry">
            <mxPoint x="155" y="750" as="sourcePoint" />
            <mxPoint x="390" y="790" as="targetPoint" />
          </mxGeometry>
        </mxCell>
        <mxCell id="v54Mh32h3l0idFHRtPxM-18" value="" style="endArrow=classic;html=1;rounded=0;exitX=0.5;exitY=1;exitDx=0;exitDy=0;exitPerimeter=0;entryX=0.5;entryY=0;entryDx=0;entryDy=0;entryPerimeter=0;" parent="1" source="v54Mh32h3l0idFHRtPxM-8" target="v54Mh32h3l0idFHRtPxM-10" edge="1">
          <mxGeometry width="50" height="50" relative="1" as="geometry">
            <mxPoint x="545" y="810" as="sourcePoint" />
            <mxPoint x="490" y="830" as="targetPoint" />
          </mxGeometry>
        </mxCell>
        <mxCell id="BjLEI25kc3lY-3g5dACi-4" value="" style="edgeStyle=orthogonalEdgeStyle;rounded=0;orthogonalLoop=1;jettySize=auto;html=1;" parent="1" source="BjLEI25kc3lY-3g5dACi-1" target="BjLEI25kc3lY-3g5dACi-3" edge="1">
          <mxGeometry relative="1" as="geometry" />
        </mxCell>
        <mxCell id="BjLEI25kc3lY-3g5dACi-1" value="Rebalance" style="rounded=1;whiteSpace=wrap;html=1;" parent="1" vertex="1">
          <mxGeometry x="80" y="1160" width="120" height="40" as="geometry" />
        </mxCell>
        <mxCell id="BjLEI25kc3lY-3g5dACi-12" value="" style="edgeStyle=orthogonalEdgeStyle;rounded=0;orthogonalLoop=1;jettySize=auto;html=1;" parent="1" source="BjLEI25kc3lY-3g5dACi-2" target="BjLEI25kc3lY-3g5dACi-9" edge="1">
          <mxGeometry relative="1" as="geometry" />
        </mxCell>
        <mxCell id="BjLEI25kc3lY-3g5dACi-2" value="remove partions owned by C_i" style="rounded=0;whiteSpace=wrap;html=1;" parent="1" vertex="1">
          <mxGeometry x="50" y="1340" width="180" height="40" as="geometry" />
        </mxCell>
        <mxCell id="BjLEI25kc3lY-3g5dACi-7" value="" style="edgeStyle=orthogonalEdgeStyle;rounded=0;orthogonalLoop=1;jettySize=auto;html=1;" parent="1" source="BjLEI25kc3lY-3g5dACi-3" target="BjLEI25kc3lY-3g5dACi-5" edge="1">
          <mxGeometry relative="1" as="geometry" />
        </mxCell>
        <mxCell id="BjLEI25kc3lY-3g5dACi-3" value="consumer C_i in group G" style="shape=parallelogram;perimeter=parallelogramPerimeter;whiteSpace=wrap;html=1;fixedSize=1;" parent="1" vertex="1">
          <mxGeometry x="60" y="1220" width="160" height="40" as="geometry" />
        </mxCell>
        <mxCell id="BjLEI25kc3lY-3g5dACi-8" value="" style="edgeStyle=orthogonalEdgeStyle;rounded=0;orthogonalLoop=1;jettySize=auto;html=1;" parent="1" source="BjLEI25kc3lY-3g5dACi-5" target="BjLEI25kc3lY-3g5dACi-2" edge="1">
          <mxGeometry relative="1" as="geometry" />
        </mxCell>
        <mxCell id="BjLEI25kc3lY-3g5dACi-5" value="C_i subscribe Topic T ?" style="rhombus;whiteSpace=wrap;html=1;" parent="1" vertex="1">
          <mxGeometry x="57.5" y="1280" width="165" height="40" as="geometry" />
        </mxCell>
        <mxCell id="BjLEI25kc3lY-3g5dACi-9" value="P_T = partitions of T&lt;br&gt;C_T = consumers in G sub T" style="rounded=0;whiteSpace=wrap;html=1;" parent="1" vertex="1">
          <mxGeometry x="50" y="1400" width="180" height="40" as="geometry" />
        </mxCell>
        <mxCell id="BjLEI25kc3lY-3g5dACi-19" style="edgeStyle=orthogonalEdgeStyle;rounded=0;orthogonalLoop=1;jettySize=auto;html=1;exitX=1;exitY=0.5;exitDx=0;exitDy=0;entryX=0;entryY=0.5;entryDx=0;entryDy=0;" parent="1" source="BjLEI25kc3lY-3g5dACi-10" target="BjLEI25kc3lY-3g5dACi-11" edge="1">
          <mxGeometry relative="1" as="geometry" />
        </mxCell>
        <mxCell id="BjLEI25kc3lY-3g5dACi-10" value="sort P_T, C_T" style="rounded=0;whiteSpace=wrap;html=1;" parent="1" vertex="1">
          <mxGeometry x="50" y="1460" width="180" height="40" as="geometry" />
        </mxCell>
        <mxCell id="BjLEI25kc3lY-3g5dACi-20" style="edgeStyle=orthogonalEdgeStyle;rounded=0;orthogonalLoop=1;jettySize=auto;html=1;exitX=0.5;exitY=1;exitDx=0;exitDy=0;" parent="1" source="BjLEI25kc3lY-3g5dACi-11" target="BjLEI25kc3lY-3g5dACi-13" edge="1">
          <mxGeometry relative="1" as="geometry" />
        </mxCell>
        <mxCell id="BjLEI25kc3lY-3g5dACi-11" value="j = C_i in C_T&lt;br&gt;N = P_T / C_T" style="rounded=0;whiteSpace=wrap;html=1;" parent="1" vertex="1">
          <mxGeometry x="280" y="1220" width="180" height="40" as="geometry" />
        </mxCell>
        <mxCell id="BjLEI25kc3lY-3g5dACi-21" style="edgeStyle=orthogonalEdgeStyle;rounded=0;orthogonalLoop=1;jettySize=auto;html=1;exitX=0.5;exitY=1;exitDx=0;exitDy=0;entryX=0.5;entryY=0;entryDx=0;entryDy=0;" parent="1" source="BjLEI25kc3lY-3g5dACi-13" target="BjLEI25kc3lY-3g5dACi-14" edge="1">
          <mxGeometry relative="1" as="geometry" />
        </mxCell>
        <mxCell id="BjLEI25kc3lY-3g5dACi-13" value="assign partitions P of [j * N, (j+1) * N - 1] to C_i" style="rounded=0;whiteSpace=wrap;html=1;" parent="1" vertex="1">
          <mxGeometry x="280" y="1280" width="180" height="40" as="geometry" />
        </mxCell>
        <mxCell id="BjLEI25kc3lY-3g5dACi-22" style="edgeStyle=orthogonalEdgeStyle;rounded=0;orthogonalLoop=1;jettySize=auto;html=1;exitX=0.5;exitY=1;exitDx=0;exitDy=0;entryX=0.5;entryY=0;entryDx=0;entryDy=0;" parent="1" source="BjLEI25kc3lY-3g5dACi-14" target="BjLEI25kc3lY-3g5dACi-15" edge="1">
          <mxGeometry relative="1" as="geometry" />
        </mxCell>
        <mxCell id="BjLEI25kc3lY-3g5dACi-14" value="p in P?" style="rhombus;whiteSpace=wrap;html=1;" parent="1" vertex="1">
          <mxGeometry x="287.5" y="1340" width="165" height="40" as="geometry" />
        </mxCell>
        <mxCell id="BjLEI25kc3lY-3g5dACi-23" style="edgeStyle=orthogonalEdgeStyle;rounded=0;orthogonalLoop=1;jettySize=auto;html=1;exitX=0.5;exitY=1;exitDx=0;exitDy=0;entryX=0.5;entryY=0;entryDx=0;entryDy=0;" parent="1" source="BjLEI25kc3lY-3g5dACi-15" target="BjLEI25kc3lY-3g5dACi-17" edge="1">
          <mxGeometry relative="1" as="geometry" />
        </mxCell>
        <mxCell id="BjLEI25kc3lY-3g5dACi-15" value="set ownership" style="rounded=0;whiteSpace=wrap;html=1;" parent="1" vertex="1">
          <mxGeometry x="280" y="1400" width="180" height="40" as="geometry" />
        </mxCell>
        <mxCell id="BjLEI25kc3lY-3g5dACi-24" style="edgeStyle=orthogonalEdgeStyle;rounded=0;orthogonalLoop=1;jettySize=auto;html=1;exitX=0.5;exitY=1;exitDx=0;exitDy=0;entryX=0.5;entryY=0;entryDx=0;entryDy=0;" parent="1" source="BjLEI25kc3lY-3g5dACi-17" target="BjLEI25kc3lY-3g5dACi-18" edge="1">
          <mxGeometry relative="1" as="geometry" />
        </mxCell>
        <mxCell id="BjLEI25kc3lY-3g5dACi-17" value="invoke a thread to pull data in p" style="rounded=0;whiteSpace=wrap;html=1;" parent="1" vertex="1">
          <mxGeometry x="280" y="1460" width="180" height="40" as="geometry" />
        </mxCell>
        <mxCell id="BjLEI25kc3lY-3g5dACi-18" value="End" style="rounded=1;whiteSpace=wrap;html=1;" parent="1" vertex="1">
          <mxGeometry x="310" y="1520" width="120" height="40" as="geometry" />
        </mxCell>
        <mxCell id="guV7griK0PbX0vjCUKAA-14" style="edgeStyle=orthogonalEdgeStyle;rounded=0;orthogonalLoop=1;jettySize=auto;html=1;exitX=1;exitY=0.5;exitDx=0;exitDy=0;" edge="1" parent="1" source="guV7griK0PbX0vjCUKAA-2" target="guV7griK0PbX0vjCUKAA-11">
          <mxGeometry relative="1" as="geometry" />
        </mxCell>
        <mxCell id="guV7griK0PbX0vjCUKAA-2" value="Kafka" style="swimlane;whiteSpace=wrap;html=1;" vertex="1" parent="1">
          <mxGeometry x="160" y="1720" width="160" height="240" as="geometry" />
        </mxCell>
        <mxCell id="guV7griK0PbX0vjCUKAA-1" value="Broker" style="shape=cylinder3;whiteSpace=wrap;html=1;boundedLbl=1;backgroundOutline=1;size=15;rotation=0;" vertex="1" parent="guV7griK0PbX0vjCUKAA-2">
          <mxGeometry x="41.25" y="40" width="77.5" height="80" as="geometry" />
        </mxCell>
        <mxCell id="guV7griK0PbX0vjCUKAA-3" value="Broker" style="shape=cylinder3;whiteSpace=wrap;html=1;boundedLbl=1;backgroundOutline=1;size=15;rotation=0;" vertex="1" parent="guV7griK0PbX0vjCUKAA-2">
          <mxGeometry x="41.25" y="140" width="77.5" height="80" as="geometry" />
        </mxCell>
        <mxCell id="guV7griK0PbX0vjCUKAA-8" style="edgeStyle=orthogonalEdgeStyle;rounded=0;orthogonalLoop=1;jettySize=auto;html=1;entryX=0;entryY=0.5;entryDx=0;entryDy=0;" edge="1" parent="1" source="guV7griK0PbX0vjCUKAA-4" target="guV7griK0PbX0vjCUKAA-2">
          <mxGeometry relative="1" as="geometry" />
        </mxCell>
        <mxCell id="guV7griK0PbX0vjCUKAA-4" value="Data&lt;br&gt;Src" style="ellipse;whiteSpace=wrap;html=1;aspect=fixed;" vertex="1" parent="1">
          <mxGeometry x="57.5" y="1808.75" width="62.5" height="62.5" as="geometry" />
        </mxCell>
        <mxCell id="guV7griK0PbX0vjCUKAA-9" value="Spark Streaming" style="swimlane;whiteSpace=wrap;html=1;" vertex="1" parent="1">
          <mxGeometry x="400" y="1720" width="200" height="240" as="geometry" />
        </mxCell>
        <mxCell id="guV7griK0PbX0vjCUKAA-13" value="" style="edgeStyle=orthogonalEdgeStyle;rounded=0;orthogonalLoop=1;jettySize=auto;html=1;" edge="1" parent="guV7griK0PbX0vjCUKAA-9" source="guV7griK0PbX0vjCUKAA-11" target="guV7griK0PbX0vjCUKAA-12">
          <mxGeometry relative="1" as="geometry" />
        </mxCell>
        <mxCell id="guV7griK0PbX0vjCUKAA-11" value="Receiver" style="rounded=0;whiteSpace=wrap;html=1;" vertex="1" parent="guV7griK0PbX0vjCUKAA-9">
          <mxGeometry x="40" y="40" width="120" height="70" as="geometry" />
        </mxCell>
        <mxCell id="guV7griK0PbX0vjCUKAA-12" value="RDD Computaion" style="rounded=0;whiteSpace=wrap;html=1;" vertex="1" parent="guV7griK0PbX0vjCUKAA-9">
          <mxGeometry x="40" y="150" width="120" height="70" as="geometry" />
        </mxCell>
        <mxCell id="guV7griK0PbX0vjCUKAA-15" value="Spark Streaming" style="swimlane;whiteSpace=wrap;html=1;" vertex="1" parent="1">
          <mxGeometry x="900" y="1440" width="200" height="170.4" as="geometry" />
        </mxCell>
        <mxCell id="guV7griK0PbX0vjCUKAA-16" value="" style="edgeStyle=orthogonalEdgeStyle;rounded=0;orthogonalLoop=1;jettySize=auto;html=1;" edge="1" parent="guV7griK0PbX0vjCUKAA-15" source="guV7griK0PbX0vjCUKAA-17" target="guV7griK0PbX0vjCUKAA-18">
          <mxGeometry relative="1" as="geometry" />
        </mxCell>
        <mxCell id="guV7griK0PbX0vjCUKAA-17" value="Receiver" style="rounded=0;whiteSpace=wrap;html=1;" vertex="1" parent="guV7griK0PbX0vjCUKAA-15">
          <mxGeometry x="40" y="40" width="120" height="50" as="geometry" />
        </mxCell>
        <mxCell id="guV7griK0PbX0vjCUKAA-18" value="RDD Computaion" style="rounded=0;whiteSpace=wrap;html=1;" vertex="1" parent="guV7griK0PbX0vjCUKAA-15">
          <mxGeometry x="40" y="110.4" width="120" height="49.6" as="geometry" />
        </mxCell>
        <mxCell id="guV7griK0PbX0vjCUKAA-26" style="edgeStyle=orthogonalEdgeStyle;rounded=0;orthogonalLoop=1;jettySize=auto;html=1;exitX=0.5;exitY=1;exitDx=0;exitDy=0;entryX=0.5;entryY=0;entryDx=0;entryDy=0;" edge="1" parent="1" source="guV7griK0PbX0vjCUKAA-19" target="guV7griK0PbX0vjCUKAA-15">
          <mxGeometry relative="1" as="geometry" />
        </mxCell>
        <mxCell id="guV7griK0PbX0vjCUKAA-19" value="Kafka" style="swimlane;whiteSpace=wrap;html=1;" vertex="1" parent="1">
          <mxGeometry x="900" y="1290" width="200" height="130" as="geometry" />
        </mxCell>
        <mxCell id="guV7griK0PbX0vjCUKAA-20" value="Broker" style="shape=cylinder3;whiteSpace=wrap;html=1;boundedLbl=1;backgroundOutline=1;size=15;rotation=0;" vertex="1" parent="guV7griK0PbX0vjCUKAA-19">
          <mxGeometry x="61.25" y="40" width="77.5" height="80" as="geometry" />
        </mxCell>
        <mxCell id="guV7griK0PbX0vjCUKAA-27" style="edgeStyle=orthogonalEdgeStyle;rounded=0;orthogonalLoop=1;jettySize=auto;html=1;entryX=0.5;entryY=0;entryDx=0;entryDy=0;" edge="1" parent="1" source="guV7griK0PbX0vjCUKAA-23" target="guV7griK0PbX0vjCUKAA-19">
          <mxGeometry relative="1" as="geometry" />
        </mxCell>
        <mxCell id="guV7griK0PbX0vjCUKAA-23" value="Data&lt;br&gt;Src" style="ellipse;whiteSpace=wrap;html=1;aspect=fixed;" vertex="1" parent="1">
          <mxGeometry x="968.75" y="1200" width="62.5" height="62.5" as="geometry" />
        </mxCell>
        <mxCell id="guV7griK0PbX0vjCUKAA-25" value="" style="edgeStyle=orthogonalEdgeStyle;rounded=0;orthogonalLoop=1;jettySize=auto;html=1;exitX=0.5;exitY=1;exitDx=0;exitDy=0;" edge="1" parent="1" source="guV7griK0PbX0vjCUKAA-18">
          <mxGeometry relative="1" as="geometry">
            <mxPoint x="1010" y="1529.6" as="sourcePoint" />
            <mxPoint x="1000" y="1630" as="targetPoint" />
          </mxGeometry>
        </mxCell>
      </root>
    </mxGraphModel>
  </diagram>
</mxfile>
